# Blender v2.79 (sub 0) OBJ File: 'table.blend'
# www.blender.org
mtllib table.mtl
o table_Plane
v 68.580002 3.950000 -128.604004
v 60.024010 3.950000 -137.160004
v -68.580002 4.500000 -129.221832
v -60.881821 4.500000 137.079987
v -68.580002 4.500000 129.221832
v 68.580002 4.500000 129.381836
v 63.080002 4.500000 5.500000
v 63.080002 4.500000 -5.500000
v -68.580002 0.000000 137.159988
v 68.580002 0.000000 137.159988
v -68.580002 0.000000 -137.159988
v 68.580002 0.000000 -137.159988
v -68.580002 0.000000 137.159988
v 68.580002 0.000000 137.159988
v -68.580002 0.000000 -137.159988
v 68.580002 0.000000 -137.159988
v 68.580002 4.500000 5.500000
v 63.080002 10.000286 5.500000
v 63.080002 10.000286 -5.500000
v 68.580002 10.000286 -5.500000
v 68.580002 4.500000 -5.500000
v 68.580002 10.000286 5.500015
v -68.580002 4.500000 5.500000
v -68.580002 10.000286 -5.500000
v -68.580002 4.500000 -5.500000
v -63.080002 10.000286 -5.500000
v -68.580002 10.000286 5.500015
v -63.080002 10.000286 5.500000
v 68.580002 10.000286 129.381836
v 61.071232 10.000286 137.160004
v 68.580002 4.500000 137.160004
v -68.580002 10.000286 129.221832
v -60.881821 10.000286 137.079987
v -68.580002 4.500000 137.160004
v -68.580002 10.000286 -129.221832
v -60.881821 10.000286 -137.079987
v -60.881821 4.500000 -137.079987
v -68.580002 4.500000 -137.160004
v 68.580002 9.997854 -128.604004
v 68.580002 3.950000 -137.160004
v 60.024010 10.000286 -137.160004
v 60.024010 9.997854 -137.160004
v 60.833893 4.592835 137.155411
v 60.833893 4.592835 137.155411
v -63.080002 4.500000 5.500000
v -63.080002 4.500000 -5.500000
vt 0.000000 0.000000
vt 0.000000 0.000000
vt 0.000000 0.000000
vt 0.461034 28.216000
vt 0.538966 0.784000
vt 0.461034 0.784000
vt 0.461034 0.500000
vt 0.465363 0.050000
vt 0.534105 0.105000
vt 0.538966 0.216000
vt 0.461034 0.216000
vt 0.538966 0.216000
vt 0.538966 0.784000
vt 0.461034 0.784000
vt 0.538966 28.216000
vt 0.461034 0.216000
vt 0.461034 -27.216000
vt 0.538966 0.500000
vt 0.534677 0.040715
vt 0.465363 0.050000
vt 13.949999 0.050000
vt 13.949998 -0.597775
vt 1.561815 0.050000
vt -12.949999 0.050000
vt -12.950000 -0.597775
vt -0.577818 0.050000
vt 0.000000 0.000000
vt 0.000000 0.000000
vt 0.000000 0.000000
vt 0.000000 0.000000
vt 0.000000 0.000000
vt 0.000000 0.000000
vt 0.000000 0.000000
vt 0.000000 0.000000
vt 0.538966 0.050000
vt 0.534677 0.040715
vt 0.534546 0.784000
vt 0.538966 1.561816
vt 0.000000 0.000000
vt 0.000000 0.000000
vt 0.465454 28.199999
vt 0.461034 27.422184
vt 0.464159 15.050002
vt 0.000000 0.000000
vt 0.000000 0.000000
vt 0.000000 0.000000
vt 0.000000 0.000000
vt 0.000000 0.000000
vt 0.000000 0.000000
vt 0.000000 0.000000
vt 0.000000 0.000000
vt 0.534546 -0.597775
vt 27.360399 -0.597775
vt 27.360428 0.105000
vt 0.000000 0.000000
vt 0.461034 13.949998
vt 0.464159 13.949997
vt 0.461034 15.050000
vt 0.000000 0.000000
vt -14.050001 0.050000
vt 0.538966 28.216000
vt 0.538966 0.105000
vt 0.538966 0.500000
vt 0.461034 0.050000
vt 0.465363 -0.597775
vt 0.534105 -0.597775
vt 0.461034 -27.216000
vt 0.461034 0.050000
vt 0.461034 0.500000
vt 0.784000 0.050000
vt 0.784000 0.500000
vt 28.216000 0.500000
vt 15.049999 0.050000
vt 28.216000 0.105000
vt 15.049999 -0.597775
vt 1.561816 -0.597775
vt 0.216000 0.050000
vt 0.216000 0.500000
vt -27.216000 0.500000
vt -27.216000 0.050000
vt -26.422184 0.050000
vt -26.422184 -0.597775
vt -14.050001 -0.597775
vt -0.577816 -0.597775
vt 0.461034 1.577816
vt 0.465363 0.784000
vt 0.538966 13.949998
vt 0.535841 13.949999
vt 0.535841 15.049999
vt 0.538966 15.049999
vt 0.538966 27.360399
vt 0.534105 28.216000
vt 0.465363 -0.597775
vn 0.0000 1.0000 0.0000
vn 0.0000 -1.0000 0.0000
vn -0.0006 0.0188 -0.9998
vn 0.0000 0.0000 1.0000
vn -0.0006 -0.0000 1.0000
vn 1.0000 0.0000 0.0000
vn -1.0000 0.0000 0.0000
vn 0.0000 0.0000 -1.0000
vn 0.0120 0.9999 0.0000
vn 0.7195 0.0000 0.6945
vn -0.7143 0.0000 0.6998
vn -0.7143 0.0000 -0.6998
vn 0.7071 0.0000 -0.7071
vn 0.0104 -0.0000 -0.9999
vn -0.0007 0.0000 -1.0000
vn 0.0104 -0.0000 0.9999
vn 0.0000 0.0178 0.9998
vn 0.7078 -0.0317 0.7057
vn 0.0003 1.0000 -0.0000
vn -0.0007 -0.0008 1.0000
usemtl Material
s off
f 5/1/1 34/2/1 4/3/1
f 11/4/2 10/5/2 9/6/2
f 15/7/3 37/8/3 2/9/3
f 12/10/4 15/11/4 16/12/4
f 9/6/4 14/13/4 13/14/4
f 10/5/4 16/15/4 14/13/4
f 11/16/4 13/17/4 15/11/4
f 14/18/5 44/19/5 4/20/5
f 17/21/6 22/22/6 6/23/6
f 25/24/7 24/25/7 3/26/7
f 20/27/4 8/28/4 21/29/4
f 18/30/6 8/28/6 19/31/6
f 21/29/1 7/32/1 17/33/1
f 22/34/8 7/32/8 18/30/8
f 31/35/9 6/23/9 43/36/9
f 30/37/10 6/23/10 29/38/10
f 32/39/11 4/3/11 33/40/11
f 36/41/1 35/42/1 26/43/1
f 36/44/12 3/45/12 35/46/12
f 37/47/1 38/48/1 3/45/1
f 1/49/1 40/50/1 2/51/1
f 44/19/4 43/36/4 30/52/4
f 2/9/13 39/53/13 1/54/13
f 45/55/8 27/56/8 28/57/8
f 24/58/4 46/59/4 26/43/4
f 23/60/1 46/59/1 25/24/1
f 46/59/7 28/57/7 26/43/7
f 11/4/2 12/61/2 10/5/2
f 40/62/8 16/63/8 2/9/8
f 16/63/8 15/7/8 2/9/8
f 15/7/14 38/64/14 37/8/14
f 37/8/15 36/65/15 41/66/15
f 37/8/15 41/66/15 2/9/15
f 12/10/4 11/16/4 15/11/4
f 9/6/4 10/5/4 14/13/4
f 10/5/4 12/61/4 16/15/4
f 11/16/4 9/67/4 13/17/4
f 34/68/16 13/69/16 4/20/16
f 13/69/17 14/18/17 4/20/17
f 14/18/5 31/35/5 44/19/5
f 31/70/6 14/71/6 6/23/6
f 14/71/6 16/72/6 17/21/6
f 17/21/6 16/72/6 21/73/6
f 16/72/6 40/74/6 1/54/6
f 1/54/6 39/53/6 21/73/6
f 39/53/6 20/75/6 21/73/6
f 16/72/6 1/54/6 21/73/6
f 6/23/6 14/71/6 17/21/6
f 22/22/6 29/76/6 6/23/6
f 38/77/7 15/78/7 3/26/7
f 15/78/7 13/79/7 25/24/7
f 3/26/7 15/78/7 25/24/7
f 13/79/7 34/80/7 5/81/7
f 5/81/7 32/82/7 27/83/7
f 5/81/7 27/83/7 23/60/7
f 24/25/7 35/84/7 3/26/7
f 5/81/7 23/60/7 13/79/7
f 23/60/7 25/24/7 13/79/7
f 20/27/4 19/31/4 8/28/4
f 18/30/6 7/32/6 8/28/6
f 21/29/1 8/28/1 7/32/1
f 22/34/8 17/33/8 7/32/8
f 30/37/18 43/36/18 6/23/18
f 32/39/11 5/1/11 4/3/11
f 27/56/1 32/85/1 28/57/1
f 32/85/1 33/86/1 28/57/1
f 33/86/1 30/37/1 29/38/1
f 29/38/1 22/87/1 18/88/1
f 19/89/1 20/90/1 39/91/1
f 33/86/1 29/38/1 18/88/1
f 19/89/19 39/91/19 41/92/19
f 33/86/1 18/88/1 28/57/1
f 18/88/1 19/89/1 28/57/1
f 35/42/1 24/58/1 26/43/1
f 26/43/1 28/57/1 19/89/1
f 19/89/1 41/92/1 26/43/1
f 41/92/1 36/41/1 26/43/1
f 36/44/12 37/47/12 3/45/12
f 44/19/4 31/35/4 43/36/4
f 30/52/20 33/93/20 44/19/20
f 33/93/5 4/20/5 44/19/5
f 2/9/13 41/92/13 39/53/13
f 45/55/8 23/60/8 27/56/8
f 24/58/4 25/24/4 46/59/4
f 23/60/1 45/55/1 46/59/1
f 46/59/7 45/55/7 28/57/7
